<svg width="43" height="41" viewBox="0 0 43 41" fill="none" xmlns="http://www.w3.org/2000/svg">
<path d="M21.2037 0H1.7037C-0.296296 0 -0.12963 7.33333 0.203704 11H4.2037C7.71172 11 9.70367 12.5 9.7037 14.5V31C9.3037 36.6 12.2037 39.5 15.2037 40.5C18.2037 41.5 26.7037 40.5 26.7037 40.5C30.3037 40.1 30.2037 39 30.2037 36C30.2037 33 29.4428 32.4848 24.7037 32.5C19.9646 32.5152 19.2037 29.5 19.2037 28V20C18.8037 12.8 19.7037 11.5 21.2037 11C22.7037 10.5 31.2037 11 31.2037 11C30.0037 3.4 24.037 0.5 21.2037 0Z" fill="#F35F17"/>
<path d="M38.5 8C38.5 8 35 15 33 17C31 19 26.2904 19.2483 23 20L31 21C31 21 31.4024 21.1095 31.5 21.5C31.5976 21.8905 31.5 23 31.5 23L30 30.5L35.5 22L39 21L43 20C43 20 39.2576 19.8727 37.5 19C36.8694 18.6869 36 18 36 18L38.5 8Z" fill="#F15F16"/>
</svg>
